# xmcd CD database file generated by Grip 2.91
# 
# Track frame offsets:
#       150
#       26597
#       55015
#       81635
#       106895
#       133950
#       155210
#       176387
#       194800
#       215242
#       245725
#       260100
#       302325
# 
# Disc length: 4379 seconds
# 
# Revision: 3
# Processed by: cddbd v1.4b41PL1 Copyright (c) Steve Scherf et al.
# Submitted via: Grip 2.91
# 
DISCID=c911190d
DTITLE=Gary Numan - Berserker
DYEAR=1900
DGENRE=
TTITLE0=Berserker
TTITLE1=This is New Love
TTITLE2=The Secret
TTITLE3=My Dying Machine
TTITLE4=Cold Warning
TTITLE5=Pump It Up
TTITLE6=The God Film
TTITLE7=A Child With the Ghost
TTITLE8=The Hunter
TTITLE9=Beserker (extended)
TTITLE10=Empty Bed, Empty Heart (Beserker B-side)
TTITLE11=My Dying Machine (extended)
TTITLE12=Here Am I ( My Dying Machine b-side)
EXTD=
EXTT0=
EXTT1=
EXTT2=
EXTT3=
EXTT4=
EXTT5=
EXTT6=
EXTT7=
EXTT8=
EXTT9=
EXTT10=
EXTT11=
EXTT12=
PLAYORDER=
